<?xml version="1.0" ?>
<!-- Uploaded to: SVG Repo, www.svgrepo.com, Generator: SVG Repo Mixer Tools -->
<svg width="800px" height="800px" viewBox="0 0 512 512" baseProfile="tiny" overflow="visible" version="1.1" xml:space="preserve" xmlns="http://www.w3.org/2000/svg" xmlns:xlink="http://www.w3.org/1999/xlink">
<g id="Layer_1"/>
<g id="Layer_2"/>
<g id="Layer_3">
<g>
<g>
<path d="M254.992,110.313c-3.865,0-7.145-2.967-7.467-6.887c-0.704-8.583-0.137-21.746,6.565-35.708     c7.773-16.196,20.044-25.244,26.666-29.195c3.556-2.122,8.161-0.961,10.283,2.598c2.123,3.557,0.96,8.161-2.598,10.283     c-5.173,3.086-14.757,10.153-20.828,22.805c-5.248,10.934-5.691,21.257-5.14,27.991c0.339,4.128-2.733,7.749-6.861,8.088     C255.404,110.305,255.197,110.313,254.992,110.313z" fill="#A05423"/>
</g>
<path d="M431.516,460.538H94.511c-35.29,0-63.898-28.608-63.898-63.898V239.222h464.8V396.64    C495.414,431.93,466.806,460.538,431.516,460.538z" fill="#FFAAA1"/>
<path d="M476,239.222v159.29c0,34.256-27.77,62.026-62.026,62.026h19.414c34.256,0,62.026-27.77,62.026-62.026    v-159.29H476z" fill="#FF938A"/>
<path d="M256,160.512c0,0-263.539-5.732-247.824,92.211c15.716,97.943,109.69,67.225,109.69,67.225    s71.644-30.497,93.404-18.254S256,311.311,256,311.311s22.969,2.626,44.729-9.616c21.76-12.243,81.75,12.67,81.75,12.67    s105.628,36.301,121.344-61.642C519.539,154.78,256,160.512,256,160.512z" fill="#F54432"/>
<g>
<path d="M281.315,301.694c-12.943,7.282-26.312,9.303-35.022,9.746c5.934,0.302,9.707-0.129,9.707-0.129     s22.969,2.626,44.73-9.616c2.239-1.26,4.889-2.121,7.831-2.661C297.806,297.695,287.841,298.023,281.315,301.694z" fill="#E83826"/>
<path d="M98.453,319.948c0,0-9.107,2.975-22.122,4.121c22.426,2.122,41.536-4.121,41.536-4.121     s38.882-16.549,68.058-20.37C159.375,294.016,98.453,319.948,98.453,319.948z" fill="#E83826"/>
<path d="M256,160.512c0,0-3.518-0.076-9.707-0.061c47.423,0.119,252.018,5.634,238.117,92.271     c-8.13,50.668-40.322,65.406-69.505,67.832c32.435,2.469,78.91-5.454,88.919-67.832C519.539,154.78,256,160.512,256,160.512z" fill="#E83826"/>
</g>
<ellipse cx="255" cy="147.662" fill="#FFAAA1" rx="44.286" ry="44.85"/>
<path d="M255,102.813c-1.641,0-3.259,0.097-4.854,0.273c22.174,2.449,39.432,21.468,39.432,44.576    s-17.258,42.127-39.432,44.576c1.595,0.176,3.213,0.273,4.854,0.273c24.458,0,44.286-20.08,44.286-44.849    S279.458,102.813,255,102.813z" fill="#FF938A"/>
</g>
</g>
<g id="Layer_4"/>
<g id="Layer_5"/>
<g id="Layer_6"/>
<g id="Layer_7"/>
<g id="Layer_8"/>
<g id="Layer_9"/>
<g id="Layer_10"/>
<g id="Layer_11"/>
<g id="Layer_12"/>
<g id="Layer_13"/>
<g id="Layer_14"/>
<g id="Layer_15"/>
<g id="Layer_16"/>
<g id="Layer_17"/>
<g id="Layer_18"/>
<g id="Layer_19"/>
<g id="Layer_20"/>
<g id="Layer_21"/>
<g id="Layer_22"/>
<g id="Layer_23"/>
<g id="Layer_24"/>
<g id="Layer_25"/>
<g id="Layer_26"/>
<g id="Layer_27"/>
<g id="Layer_28"/>
<g id="Layer_29"/>
<g id="Layer_30"/>
<g id="Layer_31"/>
<g id="Layer_32"/>
<g id="Layer_33"/>
<g id="Layer_34"/>
<g id="Layer_35"/>
<g id="Layer_36"/>
<g id="Layer_37"/>
<g id="Layer_38"/>
<g id="Layer_39"/>
<g id="Layer_40"/>
<g id="Layer_41"/>
<g id="Layer_42"/>
<g id="Layer_43"/>
<g id="Layer_44"/>
<g id="Layer_45"/>
<g id="Layer_46"/>
<g id="Layer_47"/>
<g id="Layer_48"/>
<g id="Layer_49"/>
<g id="Layer_50">
<g>
<g>
<path d="M431.514,467.79H94.505c-39.37,0-71.399-32.03-71.399-71.4v-93.45c0-4.142,3.357-7.5,7.5-7.5s7.5,3.358,7.5,7.5v93.45     c0,31.099,25.301,56.4,56.399,56.4h337.009c31.094,0,56.391-25.301,56.391-56.4V280.6c0-4.142,3.357-7.5,7.5-7.5     c4.143,0,7.5,3.358,7.5,7.5v115.79C502.904,435.76,470.879,467.79,431.514,467.79z"/>
</g>
<g>
<path d="M85.743,331.831c-19.077,0-42.494-4.787-60.562-23.712C12.68,295.017,4.467,276.694,0.77,253.659     c-2.602-16.207,1.353-30.889,11.751-43.638c15.751-19.311,46.643-34.057,91.82-43.83c38.3-8.286,79.931-11.476,108.111-12.693     c4.09-0.167,7.638,3.031,7.816,7.169c0.179,4.138-3.031,7.638-7.17,7.817c-97.055,4.192-165.927,22.788-188.954,51.018     c-7.684,9.42-10.485,19.815-8.564,31.78c3.207,19.98,10.088,35.619,20.452,46.481c28.123,29.458,75.319,16.071,79.255,14.885     c2.724-1.145,19.545-8.114,38.993-13.86c29.808-8.807,49.651-10.078,60.661-3.884c19.247,10.834,40.014,8.725,40.222,8.703     c0.554-0.06,1.134-0.061,1.686,0.002c0.187,0.019,20.953,2.129,40.198-8.705c23.954-13.473,80.453,9.039,88.051,12.174     c2.069,0.676,21.134,6.696,42.92,6.067c29.289-0.833,49.684-12.87,60.619-35.776c3.585-7.484,6.198-16.258,7.773-26.085     c1.923-11.985-0.891-22.395-8.602-31.826c-23.244-28.43-92.813-47.038-190.87-51.054c-4.139-0.169-7.356-3.662-7.187-7.801     c0.171-4.139,3.674-7.371,7.801-7.187c28.3,1.159,70.143,4.267,108.778,12.493c45.852,9.763,77.173,24.584,93.091,44.054     c10.435,12.762,14.404,27.463,11.8,43.695c-1.803,11.249-4.848,21.405-9.051,30.181c-13.421,28.111-39.067,43.437-74.165,44.311     c-25.604,0.645-47.064-6.639-47.967-6.949c-0.147-0.05-0.294-0.106-0.438-0.166c-21.902-9.083-61.685-20.66-75.198-13.06     c-21.453,12.077-43.743,11.001-48.407,10.616c-4.668,0.386-26.955,1.459-48.409-10.617c-12.775-7.184-58.437,6.566-86.783,18.625     c-0.199,0.084-0.402,0.161-0.607,0.228C119.006,327.218,104.464,331.83,85.743,331.831z"/>
</g>
<g>
<path d="M254.995,199.761c-28.555,0-51.786-23.484-51.786-52.35s23.231-52.349,51.786-52.349s51.786,23.484,51.786,52.349     S283.549,199.761,254.995,199.761z M254.995,110.062c-20.284,0-36.786,16.755-36.786,37.35s16.502,37.35,36.786,37.35     s36.786-16.755,36.786-37.35S275.279,110.062,254.995,110.062z"/>
</g>
<g>
<path d="M254.987,110.063c-3.865,0-7.145-2.967-7.467-6.887c-0.704-8.583-0.137-21.746,6.565-35.708     c7.773-16.196,20.044-25.244,26.666-29.195c3.556-2.122,8.161-0.961,10.283,2.598c2.123,3.557,0.96,8.161-2.598,10.283     c-5.173,3.086-14.757,10.153-20.828,22.805c-5.248,10.934-5.691,21.257-5.14,27.991c0.339,4.128-2.733,7.749-6.861,8.088     C255.399,110.054,255.192,110.063,254.987,110.063z"/>
</g>
</g>
</g>
</svg>