<?xml version="1.0" encoding="utf-8"?>
<!-- Uploaded to: SVG Repo, www.svgrepo.com, Generator: SVG Repo Mixer Tools -->
<svg width="800px" height="800px" viewBox="-6.6 0 32 32" xmlns="http://www.w3.org/2000/svg">
  <g id="ice_cream" data-name="ice cream" transform="translate(-138.576 -133.994)">
    <g id="Group_433" data-name="Group 433">
      <g id="Group_419" data-name="Group 419">
        <g id="Group_418" data-name="Group 418">
          <circle id="Ellipse_85" data-name="Ellipse 85" cx="3.938" cy="3.938" r="3.938" transform="translate(144.029 134.921)" fill="#ffa99f"/>
        </g>
      </g>
      <g id="Group_421" data-name="Group 421">
        <g id="Group_420" data-name="Group 420">
          <circle id="Ellipse_86" data-name="Ellipse 86" cx="3.938" cy="3.938" r="3.938" transform="translate(139.737 140.296)" fill="#f0efda"/>
        </g>
      </g>
      <g id="Group_423" data-name="Group 423">
        <g id="Group_422" data-name="Group 422">
          <circle id="Ellipse_87" data-name="Ellipse 87" cx="3.938" cy="3.938" r="3.938" transform="translate(148.342 140.296)" fill="#85d0bc"/>
        </g>
      </g>
      <g id="Group_428" data-name="Group 428">
        <g id="Group_425" data-name="Group 425" opacity="0.5">
          <g id="Group_424" data-name="Group 424">
            <path id="Path_278" data-name="Path 278" d="M149.466,136.421a3.9,3.9,0,0,1,1.919.518,3.925,3.925,0,0,0-7.356,1.919,3.852,3.852,0,0,0,.3,1.5,3.908,3.908,0,0,0-4.6,3.876,3.922,3.922,0,0,0,2.019,3.419,3.909,3.909,0,0,1,3.419-5.856c.076,0,.149.011.223.015.1.007.388.045.448.053a4.027,4.027,0,0,1,1.247.45,3.98,3.98,0,0,0-1.534-1.523,3.647,3.647,0,0,1-.03-.433A3.937,3.937,0,0,1,149.466,136.421Z" fill="#ffffff"/>
          </g>
        </g>
        <g id="Group_427" data-name="Group 427" opacity="0.35">
          <g id="Group_426" data-name="Group 426">
            <path id="Path_279" data-name="Path 279" d="M149.842,145.733a3.912,3.912,0,0,1,5.857-3.419,3.926,3.926,0,1,0-5.338,5.338A3.9,3.9,0,0,1,149.842,145.733Z" fill="#ffffff"/>
          </g>
        </g>
      </g>
      <g id="Group_430" data-name="Group 430">
        <g id="Group_429" data-name="Group 429">
          <path id="Path_280" data-name="Path 280" d="M155.092,147.546H140.841l7.033,17.946Z" fill="#f9cb99"/>
        </g>
      </g>
      <g id="Group_432" data-name="Group 432">
        <g id="Group_431" data-name="Group 431">
          <path id="Path_281" data-name="Path 281" d="M155.571,147.546H140.352l-1.277-1.96h17.8Z" fill="#f9cb99"/>
        </g>
      </g>
    </g>
    <g id="Group_458" data-name="Group 458">
      <g id="Group_435" data-name="Group 435">
        <g id="Group_434" data-name="Group 434">
          <rect id="Rectangle_18" data-name="Rectangle 18" width="15.805" height="1" transform="translate(140.075 145.087)" fill="#282b24"/>
        </g>
      </g>
      <g id="Group_437" data-name="Group 437">
        <g id="Group_436" data-name="Group 436">
          <path id="Path_282" data-name="Path 282" d="M147.875,165.991a.536.536,0,0,1-.466-.315l-7.031-17.947a.5.5,0,0,1,.931-.364l6.572,16.775,6.737-16.754.94.343-.2.5-7.014,17.44A.506.506,0,0,1,147.875,165.991Z" fill="#282b24"/>
        </g>
      </g>
      <g id="Group_439" data-name="Group 439">
        <g id="Group_438" data-name="Group 438">
          <path id="Path_283" data-name="Path 283" d="M156.867,145.735l-.955-.3a3.8,3.8,0,1,0-7.376-.467,3.63,3.63,0,0,0,.113.468l-.956.294a4.819,4.819,0,0,1-.022-2.78,4.777,4.777,0,0,1,4.536-3.448h0a4.808,4.808,0,0,1,4.658,6.229Z" fill="#282b24"/>
        </g>
      </g>
      <g id="Group_441" data-name="Group 441">
        <g id="Group_440" data-name="Group 440">
          <path id="Path_284" data-name="Path 284" d="M152.588,140.148l-.96-.279a3.858,3.858,0,0,0,.153-1.072,3.8,3.8,0,1,0-7.453,1.072l-.96.279a4.8,4.8,0,1,1,9.22,0Z" fill="#282b24"/>
        </g>
      </g>
      <g id="Group_443" data-name="Group 443">
        <g id="Group_442" data-name="Group 442">
          <path id="Path_285" data-name="Path 285" d="M139.089,145.736a4.8,4.8,0,1,1,9.388-1.43,4.89,4.89,0,0,1-.072.839,5.054,5.054,0,0,1-.142.589l-.956-.294a3.871,3.871,0,0,0,.17-1.134,3.8,3.8,0,0,0-3.744-3.8h0a3.8,3.8,0,0,0-3.688,4.931Z" fill="#282b24"/>
        </g>
      </g>
      <g id="Group_445" data-name="Group 445">
        <g id="Group_444" data-name="Group 444">
          <path id="Path_286" data-name="Path 286" d="M155.572,148.046h-15.22a.5.5,0,0,1-.419-.227l-1.276-1.959a.5.5,0,0,1,.419-.773h17.8a.5.5,0,0,1,.416.777l-1.307,1.96A.5.5,0,0,1,155.572,148.046Zm-14.949-1H155.3l.64-.959H140Z" fill="#282b24"/>
        </g>
      </g>
      <g id="Group_447" data-name="Group 447">
        <g id="Group_446" data-name="Group 446">
          <path id="Path_287" data-name="Path 287" d="M147.874,165.994h0a.5.5,0,0,1-.462-.317l-7.034-17.947a.5.5,0,0,1,.466-.682l4.6,0a.5.5,0,0,1,.466.319l4.755,12.185a.5.5,0,0,1,0,.368l-2.32,5.763A.5.5,0,0,1,147.874,165.994Zm-6.3-17.946,6.306,16.092,1.776-4.412L145.1,148.046Z" fill="#282b24"/>
        </g>
      </g>
      <g id="Group_449" data-name="Group 449">
        <g id="Group_448" data-name="Group 448">
          <path id="Path_288" data-name="Path 288" d="M150.187,160.225a.566.566,0,0,1-.465-.318l-4.745-12.173a.5.5,0,0,1,.466-.681l4.636-.007h0a.5.5,0,0,1,.466.318l2.471,6.318a.505.505,0,0,1,0,.369l-2.364,5.861A.5.5,0,0,1,150.187,160.225Zm-4.013-12.173,4.021,10.317,1.818-4.508-2.274-5.814Z" fill="#282b24"/>
        </g>
      </g>
      <g id="Group_451" data-name="Group 451">
        <g id="Group_450" data-name="Group 450">
          <path id="Path_289" data-name="Path 289" d="M152.551,154.364a.442.442,0,0,1-.466-.318l-2.471-6.317a.5.5,0,0,1,.466-.682h4.612a.5.5,0,0,1,.465.316l.2.5a.5.5,0,0,1,0,.371l-2.339,5.816A.5.5,0,0,1,152.551,154.364Zm-1.739-6.317,1.746,4.461,1.794-4.461Z" fill="#282b24"/>
        </g>
      </g>
      <g id="Group_453" data-name="Group 453">
        <g id="Group_452" data-name="Group 452">
          <path id="Path_290" data-name="Path 290" d="M147.873,165.994h0a.5.5,0,0,1-.463-.317l-2.192-5.6a.5.5,0,0,1,0-.364l4.822-12.353a.5.5,0,0,1,.465-.318h4.589a.5.5,0,0,1,.464.687l-7.219,17.948A.5.5,0,0,1,147.873,165.994Zm-1.654-6.1,1.66,4.24,6.473-16.093h-3.507Z" fill="#282b24"/>
        </g>
      </g>
      <g id="Group_455" data-name="Group 455">
        <g id="Group_454" data-name="Group 454">
          <path id="Path_291" data-name="Path 291" d="M145.682,160.4a.5.5,0,0,1-.466-.317l-2.328-5.941a.5.5,0,0,1,0-.365l2.506-6.411a.5.5,0,0,1,.464-.317l4.637-.018h0a.5.5,0,0,1,.466.681l-4.815,12.369a.5.5,0,0,1-.465.319Zm-1.791-6.441,1.789,4.567,4.084-10.492-3.562.013Z" fill="#282b24"/>
        </g>
      </g>
      <g id="Group_457" data-name="Group 457">
        <g id="Group_456" data-name="Group 456">
          <path id="Path_292" data-name="Path 292" d="M143.353,154.459a.5.5,0,0,1-.465-.318l-2.309-5.9a.5.5,0,0,1,0-.368l.209-.519a.5.5,0,0,1,.464-.314h0l4.6.018a.5.5,0,0,1,.464.682l-2.5,6.4a.5.5,0,0,1-.466.318Zm-1.772-6.394,1.772,4.522,1.769-4.528-3.532-.013Z" fill="#282b24"/>
        </g>
      </g>
    </g>
  </g>
</svg>