<?xml version="1.0" encoding="iso-8859-1"?>
<!-- Uploaded to: SVG Repo, www.svgrepo.com, Generator: SVG Repo Mixer Tools -->
<svg fill="#000000" height="800px" width="800px" version="1.1" id="Layer_1" xmlns="http://www.w3.org/2000/svg" xmlns:xlink="http://www.w3.org/1999/xlink" 
	 viewBox="0 0 503.607 503.607" xml:space="preserve">
<g transform="translate(1 1)">
	<g>
		<g>
			<path d="M385.098,57.754h-41.967v-8.393c0-9.233-7.554-16.787-16.787-16.787h-25.18V24.18c0-14.269-10.911-25.18-25.18-25.18
				h-50.361c-14.269,0-25.18,11.751-25.18,25.18v8.393h-25.18c-9.233,0-16.787,7.554-16.787,16.787v8.393h-41.967
				c-23.502,0-41.967,18.466-41.967,41.967v360.918c0,23.502,18.466,41.967,41.967,41.967h268.59
				c23.502,0,41.967-18.466,41.967-41.967V99.721C427.066,76.22,408.6,57.754,385.098,57.754z M175.262,49.361h33.574
				c5.036,0,8.393-3.357,8.393-8.393V24.18c0-5.036,3.357-8.393,8.393-8.393h50.361c5.036,0,8.393,4.197,8.393,8.393v16.787
				c0,5.036,3.357,8.393,8.393,8.393h33.574v16.787v41.967H175.262V66.148V49.361z M410.279,460.639
				c0,14.269-10.911,25.18-25.18,25.18h-268.59c-14.269,0-25.18-10.911-25.18-25.18V99.721c0-14.269,10.911-25.18,25.18-25.18
				h41.967v33.574c0,9.233,7.554,16.787,16.787,16.787h151.082c9.233,0,16.787-7.554,16.787-16.787V74.541h41.967
				c14.269,0,25.18,10.911,25.18,25.18V460.639z"/>
			<path d="M354.043,317.951c-5.036-0.839-9.233,2.518-10.072,6.715c-9.233,46.164-46.164,77.22-90.649,77.22
				c-42.601,0-79.462-27.886-92.158-67.148h39.279v-16.787h-48.756c-1.094-0.207-2.215-0.214-3.283,0h-15.108v67.148h16.787v-31.155
				c18.142,38.867,57.962,64.729,102.4,64.729c53.718,0,96.525-36.092,108.275-90.649
				C361.597,322.987,358.239,318.79,354.043,317.951z"/>
			<path d="M351.525,254.168c-18.75-37.83-56.397-62.119-99.043-62.119c-51.2,0-96.525,33.574-110.793,82.256
				c-0.839,4.197,1.679,8.393,5.875,10.072c4.197,0.839,8.393-1.679,10.072-5.875c11.751-40.289,52.039-69.666,94.846-69.666
				c38.211,0,72.239,22.967,86.895,58.754h-38.213v16.787h67.148v-67.148h-16.787V254.168z"/>
		</g>
	</g>
</g>
</svg>